<svg xmlns="http://www.w3.org/2000/svg" width="45.95" height="37.593" viewBox="0 0 45.95 37.593">
  <g id="_3994418_internet_network_signal_wifi_wireless_icon" data-name="3994418_internet_network_signal_wifi_wireless_icon" transform="translate(-3.997 -12)">
    <path id="Path_3" data-name="Path 3" d="M42.265,60a6.265,6.265,0,1,0,6.265,6.265A6.265,6.265,0,0,0,42.265,60Z" transform="translate(-15.294 -22.938)" fill="#4b297f"/>
    <path id="Path_4" data-name="Path 4" d="M21.771,41.715a3.132,3.132,0,1,0,4.442,4.418,12.649,12.649,0,0,1,17.634,0,3.132,3.132,0,0,0,4.442-4.417A19.056,19.056,0,0,0,21.771,41.715Z" transform="translate(-8.058 -11.634)" fill="#4b297f"/>
    <path id="Path_5" data-name="Path 5" d="M49.042,21.282a30.879,30.879,0,0,0-44.139,0,3.132,3.132,0,1,0,4.454,4.405,25.206,25.206,0,0,1,35.231,0,3.132,3.132,0,0,0,4.454-4.405Z" transform="translate(0 0)" fill="#4b297f"/>
  </g>
</svg>
