<svg xmlns="http://www.w3.org/2000/svg" width="22" height="22" viewBox="0 0 22 22">
  <g id="_4781819_direction_gps_location_map_maps_icon" data-name="4781819_direction_gps_location_map_maps_icon" transform="translate(-0.44 -0.44)">
    <g id="Layer_2" data-name="Layer 2" transform="translate(3.574 2.17)">
      <path id="Path_6" data-name="Path 6" d="M12.865,21.6a.715.715,0,0,1-.508-.207L7.3,16.388a7.8,7.8,0,0,1,0-11.068,7.915,7.915,0,0,1,11.126,0,7.8,7.8,0,0,1,0,11.068l-5.055,5.005A.715.715,0,0,1,12.865,21.6Zm0-17.16A6.435,6.435,0,0,0,8.31,6.313h0a6.371,6.371,0,0,0,0,9.038l4.555,4.526,4.555-4.526a6.371,6.371,0,0,0,0-9.038A6.435,6.435,0,0,0,12.865,4.44ZM7.81,5.806Z" transform="translate(-4.999 -3.035)" fill="#fff"/>
      <path id="Path_7" data-name="Path 7" d="M14.575,16.15a3.575,3.575,0,1,1,3.575-3.575A3.575,3.575,0,0,1,14.575,16.15Zm0-5.72a2.145,2.145,0,1,0,2.145,2.145A2.145,2.145,0,0,0,14.575,10.43Z" transform="translate(-6.709 -4.735)" fill="#fff"/>
    </g>
    <g id="frame">
      <rect id="Rectangle_3" data-name="Rectangle 3" width="22" height="22" transform="translate(0.44 0.44)" fill="none"/>
    </g>
  </g>
</svg>
