<svg xmlns="http://www.w3.org/2000/svg" width="370" height="365" viewBox="0 0 370 365">
  <g id="Group_7" data-name="Group 7" transform="translate(-375 -1753)">
    <rect id="Rectangle_Copy_2" data-name="Rectangle Copy 2" width="370" height="365" rx="25" transform="translate(375 1753)" fill="#fff"/>
    <g id="Group_2" data-name="Group 2" transform="translate(405 1806)">
      <circle id="Oval" cx="35" cy="35" r="35" transform="translate(0 0)" fill="#dbc1ff" opacity="0.2"/>
    </g>
    <g id="Group_2-2" data-name="Group 2" transform="translate(405 1806)">
      <circle id="Oval-2" data-name="Oval" cx="35" cy="35" r="35" transform="translate(0 0)" fill="#dbc1ff" opacity="0.2"/>
      <path id="Oval-3" data-name="Oval" d="M0,36A18,18,0,0,0,0,0" transform="translate(35 17)" fill="none" stroke="#e1dafc" stroke-width="4"/>
      <g id="Oval-4" data-name="Oval" transform="translate(15 15)" fill="none" stroke="#8075f2" stroke-width="2">
        <circle cx="20" cy="20" r="20" stroke="none"/>
        <circle cx="20" cy="20" r="19" fill="none"/>
      </g>
    </g>
    <text id="Being_the_savage_s_b" data-name="Being the savage&apos;s b" transform="translate(405 1902)" fill="#838383" font-size="16" font-family="Poppins-Regular, Poppins"><tspan x="0" y="17">Instalator przyjdzie do Ciebie tak </tspan><tspan x="0" y="43">szybko jak o możliwe. Jest dla nas </tspan><tspan x="0" y="69">bardzo ważne byś jak najszybciej </tspan><tspan x="0" y="95">korzystał z usług.</tspan></text>
    <text id="Learn_More" data-name="Learn More" transform="translate(405 2066)" fill="#5e32a2" font-size="16" font-family="Poppins-Bold, Poppins" font-weight="700"><tspan x="0" y="0">CZYTAJ WIĘCEJ</tspan></text>
    <text id="Access_Duaribu_Wallt" data-name="Access Duaribu Wallt" transform="translate(507 1835)" fill="#222" font-size="25" font-family="Poppins-Medium, Poppins" font-weight="500"><tspan x="0" y="0">Korzystaj </tspan><tspan x="0" y="30">z usług</tspan></text>
  </g>
</svg>
